<svg id="Layer_1" data-name="Layer 1" xmlns="http://www.w3.org/2000/svg" viewBox="0 0 16 16"><defs><style>.cls-1{fill:#fff;}</style></defs><title>footer-language</title><path class="cls-1" d="M11.65,4.75h2a6.53,6.53,0,0,0-2.93-2.66A10.14,10.14,0,0,1,11.65,4.75Z"/><path class="cls-1" d="M4,8a15.76,15.76,0,0,1,.1-1.75H1.75a6.35,6.35,0,0,0,0,3.5H4.1A15.76,15.76,0,0,1,4,8Z"/><path class="cls-1" d="M12,8a15.76,15.76,0,0,1-.1,1.75h2.35a6.35,6.35,0,0,0,0-3.5H11.9A15.76,15.76,0,0,1,12,8Z"/><path class="cls-1" d="M11.65,11.25a10.14,10.14,0,0,1-1,2.66,6.53,6.53,0,0,0,2.93-2.66h-2Z"/><path class="cls-1" d="M4.35,11.25h-2a6.53,6.53,0,0,0,2.93,2.66A10.14,10.14,0,0,1,4.35,11.25Z"/><path class="cls-1" d="M4.35,4.75a10.14,10.14,0,0,1,1-2.66A6.53,6.53,0,0,0,2.38,4.75h2Z"/><path d="M8,0a8,8,0,1,0,8,8A8,8,0,0,0,8,0Zm5.62,4.75h-2a10.14,10.14,0,0,0-1-2.66A6.53,6.53,0,0,1,13.62,4.75ZM14.5,8a6.47,6.47,0,0,1-.25,1.75H11.9A15.76,15.76,0,0,0,12,8a15.76,15.76,0,0,0-.1-1.75h2.35A6.47,6.47,0,0,1,14.5,8ZM8,14.5c-0.68,0-1.61-1.22-2.12-3.25h4.24C9.61,13.28,8.68,14.5,8,14.5ZM5.61,9.75a14.11,14.11,0,0,1,0-3.5h4.78A14.25,14.25,0,0,1,10.5,8a14.25,14.25,0,0,1-.11,1.75H5.61ZM1.5,8a6.47,6.47,0,0,1,.25-1.75H4.1a15.53,15.53,0,0,0,0,3.5H1.75A6.47,6.47,0,0,1,1.5,8ZM8,1.5c0.68,0,1.61,1.22,2.12,3.25H5.88C6.39,2.72,7.32,1.5,8,1.5Zm-2.69.59a10.14,10.14,0,0,0-1,2.66h-2A6.53,6.53,0,0,1,5.31,2.09ZM2.38,11.25h2a10.14,10.14,0,0,0,1,2.66A6.53,6.53,0,0,1,2.38,11.25Zm8.31,2.66a10.14,10.14,0,0,0,1-2.66h2A6.53,6.53,0,0,1,10.69,13.91Z"/><path class="cls-1" d="M10.12,4.75C9.61,2.72,8.68,1.5,8,1.5S6.39,2.72,5.88,4.75h4.24Z"/><path class="cls-1" d="M10.39,6.25H5.61a14.11,14.11,0,0,0,0,3.5h4.78A14.25,14.25,0,0,0,10.5,8,14.25,14.25,0,0,0,10.39,6.25Z"/><path class="cls-1" d="M5.88,11.25c0.51,2,1.43,3.25,2.12,3.25s1.61-1.22,2.12-3.25H5.88Z"/></svg>